<svg width="27" height="24" viewBox="0 0 27 24" fill="none" xmlns="http://www.w3.org/2000/svg">
<path d="M26.3226 20.7273V16.3636C26.3226 16.0743 26.207 15.7968 26.0013 15.5922C25.7957 15.3877 25.5167 15.2727 25.2258 15.2727C24.9349 15.2727 24.656 15.3877 24.4503 15.5922C24.2446 15.7968 24.129 16.0743 24.129 16.3636V20.7273C24.129 21.0166 24.0135 21.2941 23.8078 21.4987C23.6021 21.7032 23.3231 21.8182 23.0323 21.8182H3.29032C2.99944 21.8182 2.72047 21.7032 2.51479 21.4987C2.3091 21.2941 2.19355 21.0166 2.19355 20.7273V16.3636C2.19355 16.0743 2.078 15.7968 1.87231 15.5922C1.66663 15.3877 1.38766 15.2727 1.09677 15.2727C0.805892 15.2727 0.526923 15.3877 0.321238 15.5922C0.115553 15.7968 0 16.0743 0 16.3636V20.7273C0 21.5953 0.346658 22.4277 0.963713 23.0414C1.58077 23.6552 2.41767 24 3.29032 24H23.0323C23.9049 24 24.7418 23.6552 25.3589 23.0414C25.9759 22.4277 26.3226 21.5953 26.3226 20.7273ZM19.3252 15.0327L13.8413 19.3964C13.6477 19.5486 13.4081 19.6313 13.1613 19.6313C12.9145 19.6313 12.6749 19.5486 12.4813 19.3964L6.99742 15.0327C6.79761 14.8451 6.67587 14.5898 6.65629 14.3172C6.63671 14.0445 6.72072 13.7746 6.89169 13.5606C7.06267 13.3467 7.30815 13.2043 7.57958 13.1618C7.851 13.1193 8.12859 13.1796 8.35742 13.3309L12.0645 16.2764V1.09091C12.0645 0.801582 12.1801 0.524105 12.3858 0.31952C12.5914 0.114935 12.8704 0 13.1613 0C13.4522 0 13.7311 0.114935 13.9368 0.31952C14.1425 0.524105 14.2581 0.801582 14.2581 1.09091V16.2764L17.9652 13.3309C18.0756 13.2272 18.2065 13.1475 18.3495 13.0967C18.4926 13.046 18.6447 13.0253 18.7962 13.0361C18.9477 13.0468 19.0952 13.0888 19.2296 13.1592C19.3639 13.2297 19.4821 13.3272 19.5766 13.4454C19.6711 13.5637 19.7399 13.7002 19.7786 13.8462C19.8173 13.9923 19.8251 14.1448 19.8014 14.294C19.7778 14.4432 19.7233 14.5859 19.6413 14.7131C19.5593 14.8403 19.4516 14.9491 19.3252 15.0327Z" fill="white"/>
</svg>
