<svg width="27" height="27" viewBox="0 0 27 27" fill="none" xmlns="http://www.w3.org/2000/svg">
<path d="M12.901 18.3178C12.9794 18.3969 13.0727 18.4597 13.1755 18.5025C13.2784 18.5453 13.3886 18.5674 13.5 18.5674C13.6114 18.5674 13.7217 18.5453 13.8245 18.5025C13.9273 18.4597 14.0207 18.3969 14.0991 18.3178L22.5366 9.88031C22.6153 9.80164 22.6777 9.70825 22.7202 9.60546C22.7628 9.50267 22.7847 9.39251 22.7847 9.28125C22.7847 9.16999 22.7628 9.05983 22.7202 8.95704C22.6777 8.85425 22.6153 8.76086 22.5366 8.68219C22.4579 8.60352 22.3645 8.54111 22.2617 8.49854C22.159 8.45596 22.0488 8.43405 21.9375 8.43405C21.8263 8.43405 21.7161 8.45596 21.6133 8.49854C21.5105 8.54111 21.4171 8.60352 21.3385 8.68219L13.5 16.5291L5.6616 8.68219C5.50272 8.52331 5.28723 8.43405 5.06253 8.43405C4.83784 8.43405 4.62235 8.52331 4.46347 8.68219C4.30459 8.84107 4.21533 9.05656 4.21533 9.28125C4.21533 9.50594 4.30459 9.72143 4.46347 9.88031L12.901 18.3178Z" fill="#B6B6B6"/>
</svg>
