<svg width="31" height="31" viewBox="0 0 31 31" fill="none" xmlns="http://www.w3.org/2000/svg">
<path d="M15.5 31C24.0604 31 31 24.0604 31 15.5C31 6.93959 24.0604 0 15.5 0C6.93959 0 0 6.93959 0 15.5C0 24.0604 6.93959 31 15.5 31Z" fill="#F0F0F0"/>
<path d="M31 15.5C31 24.0767 24.0767 31 15.5 31C6.92333 31 0 24.0767 0 15.5H31Z" fill="#D80027"/>
<g clip-path="url(#clip0_2914_291)">
<path d="M0.964111 20.8913C3.15415 26.7936 8.83557 31 15.5 31C22.1645 31 27.8459 26.7936 30.0359 20.8913L15.5 19.5435L0.964111 20.8913Z" fill="#FFDA44"/>
<path d="M15.5 0C8.83557 0 3.15415 4.20631 0.964111 10.1087L15.5 11.4565L30.0359 10.1087C27.8459 4.20631 22.1645 0 15.5 0Z" fill="black"/>
<path d="M0.964088 10.1087C0.341061 11.7879 0 13.604 0 15.5C0 17.396 0.341061 19.2121 0.964088 20.8913H30.036C30.659 19.2121 31 17.396 31 15.5C31 13.604 30.659 11.7879 30.0359 10.1087H0.964088Z" fill="#D80027"/>
</g>
<defs>
<clipPath id="clip0_2914_291">
<rect width="31" height="31" fill="white"/>
</clipPath>
</defs>
</svg>
