<svg width="31" height="31" viewBox="0 0 31 31" fill="none" xmlns="http://www.w3.org/2000/svg">
<path d="M15.4997 30.9998C24.0596 30.9998 30.9994 24.0595 30.9994 15.5001C30.9994 6.9408 24.0603 0.000450134 15.4997 0.000450134C6.93914 0.000450134 0 6.9408 0 15.5001C0 24.0595 6.94035 30.9998 15.4997 30.9998Z" fill="#F0F0F0"/>
<path fill-rule="evenodd" clip-rule="evenodd" d="M24.9369 3.20439C23.3312 1.97039 21.499 1.06344 19.5441 0.534931V8.5978L24.9369 3.20439ZM0.534546 11.4622C1.06058 9.50453 1.96772 7.66987 3.20401 6.06336L8.59742 11.4622H0.534546ZM27.7965 6.06336C29.0317 7.67053 29.9387 9.50497 30.4659 11.4622H22.4018L27.7965 6.06336ZM0.534546 19.5475H8.59742L3.20461 24.9361C1.97074 23.3318 1.06359 21.501 0.534546 19.5475ZM6.06418 27.7968C7.67001 29.0306 9.50218 29.9375 11.457 30.4663V22.4065L6.06418 27.7968ZM6.06418 3.20439C7.66946 1.96973 9.50181 1.06271 11.457 0.534931V8.5978L6.06418 3.20439ZM19.5429 30.4663C21.498 29.9385 23.3304 29.0315 24.9357 27.7968L19.5429 22.4083V30.4663ZM27.7946 24.9379L22.4018 19.5493H30.4641C29.9361 21.5031 29.029 23.334 27.7946 24.9379Z" fill="#0052B4"/>
<path fill-rule="evenodd" clip-rule="evenodd" d="M30.8686 13.4773H17.5219V0.13002C16.1794 -0.0419261 14.8205 -0.0419261 13.478 0.13002V13.4767H0.131353C-0.0436217 14.8202 -0.0436217 16.1807 0.131353 17.5242H13.478V30.8709C14.8205 31.0428 16.1794 31.0428 17.5219 30.8709V17.5242H30.8686C31.0436 16.1809 31.0436 14.8206 30.8686 13.4773ZM19.5465 19.5476L26.4584 26.4619L27.3696 25.4629L21.4483 19.5476H19.5441H19.5465ZM4.5409 26.4619L11.457 19.5476V21.4506L5.53566 27.375L4.5409 26.4619ZM11.4564 11.4533L4.5409 4.54138L3.63271 5.54038L9.55408 11.4648H11.4607L11.4564 11.4533ZM26.4584 4.54138L19.5441 11.4533V9.55032L25.4655 3.62593L26.4584 4.54138Z" fill="#D80027"/>
</svg>
