<svg width="82" height="272" viewBox="0 0 82 272" fill="none" xmlns="http://www.w3.org/2000/svg">
<path d="M42.9721 88.0981H39.7876V248.913H42.9721V88.0981Z" fill="url(#paint0_linear_4261_2)"/>
<path d="M41.3797 271.204C34.7879 271.204 29.438 265.855 29.438 259.263C29.438 252.671 34.7879 247.321 41.3797 247.321C47.9715 247.321 53.3214 252.671 53.3214 259.263C53.3214 265.855 47.9715 271.204 41.3797 271.204ZM41.3797 250.506C36.5553 250.506 32.6224 254.438 32.6224 259.263C32.6224 264.087 36.5553 268.02 41.3797 268.02C46.2042 268.02 50.137 264.087 50.137 259.263C50.137 254.438 46.2042 250.506 41.3797 250.506Z" fill="url(#paint1_linear_4261_2)"/>
<path d="M47.4778 259.263C47.4778 262.622 44.7552 265.345 41.3956 265.345C38.036 265.345 35.3132 262.622 35.3132 259.263C35.3132 255.903 38.036 253.18 41.3956 253.18C44.7552 253.18 47.4778 255.903 47.4778 259.263Z" fill="url(#paint2_linear_4261_2)"/>
<path d="M81.9815 40.6019C81.9815 58.9125 68.161 70.5358 53.1781 79.4523C49.6115 81.5699 41.3797 94.467 41.3797 94.467C41.3797 94.467 33.1797 81.5699 29.6131 79.4523C14.6461 70.5358 0.777832 58.9284 0.777832 40.6019C0.777832 18.1833 18.9611 0 41.3797 0C63.7983 0 81.9815 18.1833 81.9815 40.6019Z" fill="url(#paint3_linear_4261_2)"/>
<path d="M27.1956 50.7826C27.7596 50.7826 28.2174 50.3248 28.2174 49.7608V37.4999C28.2174 36.9359 27.7596 36.4782 27.1956 36.4782C26.6316 36.4782 26.1738 36.9359 26.1738 37.4999V49.7608C26.1739 50.3248 26.6316 50.7826 27.1956 50.7826Z" fill="black"/>
<path d="M36.9307 48.7391H33.3261C32.7621 48.7391 32.3043 48.2794 32.3043 47.7174C32.3043 47.1534 31.8465 46.6956 31.2825 46.6956C30.7185 46.6956 30.2607 47.1534 30.2607 47.7174C30.2607 49.4073 31.636 50.7826 33.326 50.7826H36.9307C38.8864 50.7826 40.4783 49.1907 40.4783 47.2351C40.4783 45.8844 39.7283 44.6684 38.5185 44.0615L33.138 41.3723C32.6231 41.1148 32.3043 40.5998 32.3043 40.0256C32.3043 39.196 32.9786 38.5216 33.8083 38.5216H37.413C37.977 38.5216 38.4348 38.9814 38.4348 39.5434C38.4348 40.1074 38.8926 40.5652 39.4566 40.5652C40.0206 40.5652 40.4783 40.1075 40.4783 39.5435C40.4783 37.8535 39.103 36.4783 37.413 36.4783H33.8083C31.8527 36.4783 30.2608 38.0702 30.2608 40.0258C30.2608 41.3765 31.0108 42.5924 32.2206 43.1993L37.6011 45.8886C38.116 46.1461 38.4348 46.661 38.4348 47.2353C38.4348 48.0648 37.7605 48.7391 36.9307 48.7391Z" fill="black"/>
<path d="M47.6305 50.7826C50.4464 50.7826 52.7391 48.4918 52.7391 45.6739V41.5869C52.7391 38.7689 50.4464 36.4783 47.6305 36.4783C44.8146 36.4783 42.5217 38.7689 42.5217 41.5869V45.6739C42.5217 48.4918 44.8145 50.7826 47.6305 50.7826ZM44.5653 41.5869C44.5653 39.8969 45.9405 38.5217 47.6305 38.5217C49.3205 38.5217 50.6957 39.8969 50.6957 41.5869V45.6739C50.6957 47.3639 49.3205 48.7391 47.6305 48.7391C45.9405 48.7391 44.5653 47.3639 44.5653 45.6739V41.5869Z" fill="black"/>
<path d="M59.8913 32.3913H56.8261V15.0218C56.8261 14.4578 56.3684 14 55.8044 14H33.3261C33.2812 14 33.2403 14.0204 33.1953 14.0265C33.1504 14.0327 33.1115 14.0388 33.0666 14.0511C32.8949 14.0981 32.7314 14.1717 32.6027 14.2983L22.3854 24.5157C22.2586 24.6444 22.1851 24.8079 22.1381 24.9796C22.1259 25.0245 22.1177 25.0634 22.1136 25.1083C22.1075 25.1533 22.0871 25.1942 22.0871 25.2391V32.3913H19.0218C18.4578 32.3913 18 32.8491 18 33.4131V53.8478C18 54.4118 18.4578 54.8696 19.0218 54.8696H22.087V59.9782C22.087 60.5422 22.5448 61 23.1088 61H55.8044C56.3684 61 56.8261 60.5422 56.8261 59.9782V54.8696H59.8913C60.4553 54.8696 60.9131 54.4118 60.9131 53.8478V33.4131C60.913 32.8491 60.4553 32.3913 59.8913 32.3913ZM32.3044 17.4882V24.2174H25.5752L32.3044 17.4882ZM24.1304 26.2609H33.3261C33.8901 26.2609 34.3478 25.8031 34.3478 25.2391V16.0434H54.7826V32.3913H24.1304V26.2609ZM54.7826 58.9565H24.1304V54.8695H54.7826V58.9565ZM58.8696 52.826H20.0435V34.4347H58.8696V52.826Z" fill="black"/>
<defs>
<linearGradient id="paint0_linear_4261_2" x1="41.3798" y1="88.0981" x2="41.3798" y2="248.913" gradientUnits="userSpaceOnUse">
<stop stop-color="#FF9900"/>
<stop offset="0.259" stop-color="#FFA400"/>
<stop offset="0.739" stop-color="#FFB800"/>
</linearGradient>
<linearGradient id="paint1_linear_4261_2" x1="41.3797" y1="247.321" x2="41.3797" y2="271.204" gradientUnits="userSpaceOnUse">
<stop stop-color="#FF9900"/>
<stop offset="0.259" stop-color="#FFA400"/>
<stop offset="0.739" stop-color="#FFB800"/>
</linearGradient>
<linearGradient id="paint2_linear_4261_2" x1="41.3955" y1="253.18" x2="41.3955" y2="265.345" gradientUnits="userSpaceOnUse">
<stop stop-color="#FF9900"/>
<stop offset="0.259" stop-color="#FFA400"/>
<stop offset="0.739" stop-color="#FFB800"/>
</linearGradient>
<linearGradient id="paint3_linear_4261_2" x1="41.3797" y1="0" x2="41.3797" y2="94.467" gradientUnits="userSpaceOnUse">
<stop stop-color="#FF9900"/>
<stop offset="0.259" stop-color="#FFA400"/>
<stop offset="0.739" stop-color="#FFB800"/>
</linearGradient>
</defs>
</svg>
