<svg width="20" height="14" viewBox="0 0 20 14" fill="none" xmlns="http://www.w3.org/2000/svg">
<path d="M19.8692 1.27002L14.187 6.95217L19.729 12.4982C19.8968 12.2097 20.0001 11.8791 20.0001 11.522V1.95654C20.0001 1.71412 19.9501 1.48439 19.8692 1.27002Z" fill="black"/>
<path d="M18.0433 0H1.95633C1.63105 0 1.32875 0.0873438 1.05859 0.228398L9.5998 8.76953C9.84762 9.01734 10.278 9.01734 10.5215 8.76953L19.0225 0.272656C18.7334 0.103789 18.4017 0 18.0433 0Z" fill="black"/>
<path d="M0.164102 1.17712C0.0596484 1.41626 0 1.67923 0 1.9565V11.5219C0 11.8734 0.100508 12.1988 0.263398 12.4841L5.86523 6.87826L0.164102 1.17712Z" fill="black"/>
<path d="M13.2611 7.87823L11.4481 9.69561C10.6865 10.4485 9.4526 10.4609 8.6785 9.69561L6.79154 7.80432L1.25049 13.3414C1.47021 13.4271 1.70713 13.4784 1.95678 13.4784H18.0437C18.2873 13.4784 18.5182 13.4283 18.7335 13.3465L13.2611 7.87823Z" fill="black"/>
</svg>
