<svg width="13" height="23" viewBox="0 0 13 23" fill="none" xmlns="http://www.w3.org/2000/svg">
<path d="M10.8992 0H1.606C0.717716 0 0 0.721011 0 1.60847V20.4775C0 21.3642 0.717716 22.0852 1.606 22.0852H10.8984C11.7867 22.0852 12.506 21.3642 12.506 20.4775V1.60847C12.5069 0.721011 11.7883 0 10.8992 0ZM3.95938 0.977279H8.54748C8.66367 0.977279 8.75678 1.15032 8.75678 1.36539C8.75678 1.57963 8.66367 1.7535 8.54748 1.7535H3.95938C3.8432 1.7535 3.75091 1.57963 3.75091 1.36539C3.75091 1.15032 3.8432 0.977279 3.95938 0.977279ZM6.25343 20.4973C5.68734 20.4973 5.22671 20.0375 5.22671 19.4706C5.22671 18.9037 5.68816 18.4455 6.25343 18.4455C6.81871 18.4455 7.27933 18.9045 7.27933 19.4706C7.27933 20.0375 6.81788 20.4973 6.25343 20.4973ZM11.3022 16.9804H1.20471V2.7143H11.3022V16.9804Z" fill="black"/>
</svg>
